<svg id="Capa_1" data-name="Capa 1" xmlns="http://www.w3.org/2000/svg" viewBox="0 0 1920 572"><defs><style>.cls-1{fill:#e50ec6;}.cls-2{opacity:0.3;}</style></defs><title>Logo SyntheKids</title><path d="M135.26,360.9q22.14,14.3,45,18.81A80.11,80.11,0,0,0,196,381.26a95.85,95.85,0,0,0,16.48-1.49,50.79,50.79,0,0,0,15.06-4.94q14.76-7.86,14.76-24.16,0-16.79-24.76-23.45-7.26-1.91-15.47-3.46l-17-3q-32.51-5.6-45.36-16.43-11.9-9.87-11.9-26.66,0-22.86,21.9-37,19.53-12.74,46.07-12.74,25.47,0,45.83,8.33a134.6,134.6,0,0,1,15.11,7.15l-8.09,19.4q-17.27-10.37-40.71-13.45a98.58,98.58,0,0,0-14.28-1.07q-15.84,0-28,6.07-14.16,7.14-14.16,19.76,0,13.32,18,19.52a114.88,114.88,0,0,0,18.33,4.64L208.94,302q26.79,5,37.14,11.31t15.3,14.1q4.94,7.8,4.94,20.72a44.59,44.59,0,0,1-6.07,23.15,51.54,51.54,0,0,1-16.19,16.9q-19.77,13.21-50.35,13.21A119.84,119.84,0,0,1,140,389a98.46,98.46,0,0,1-15.24-9.29Z"/><path d="M348.93,327l-62.14-96.66H311l49.16,77,48.81-77h22.73L371,326.62v72.25h-22Z"/><path d="M458,230.32h19.28L585.8,363.4V230.32h19.64V398.87H587l-109.39-134v134H458Z"/><path d="M698.65,250.32H635.32v-20H784v20H720.67V398.87h-22Z"/><path d="M813.87,230.32h22v91.54H939.34V230.32h22V398.87h-22v-57H835.89v57h-22Z"/><path d="M1005.16,230.32H1131v20h-103.8v45.47h92.49v20h-92.49v63.09h106.18v20h-128.2Z"/><path class="cls-1" d="M1251.12,53.18q5.07,0,31.32,29.54v1.79q-9.24,25-16.7,34.9v1.79a15.35,15.35,0,0,0,1.78,7.46q-17.3,57.85-23.86,68a12,12,0,0,0-5.37,1.79v-1.79l1.8-3.58h-5.67c0,6.17-1.2,9.24-3.58,9.24a13.68,13.68,0,0,1-1.79-5.66l-3.88,1.79h-1.79q0-9-3.58-9-4.17,3.3-18.49,5.38v1.79q0,3,7.46,7.46a13.82,13.82,0,0,1,1.78-5.67,13.64,13.64,0,0,0,7.47,2.08l-3.89,5.38c2.59,0,3.89,2.49,3.89,7.44h3.57V207.7l-3.57-5.37,8.94,1.8h5.67c0,2.38.59,3.57,1.79,3.57a13.82,13.82,0,0,1,5.67-1.78l1.79,3.57a17.05,17.05,0,0,0-3.59,11h-2.09l-3.57-1.79-1.79,3.87c2.38.41,3.58,1.61,3.58,3.59v5.36q-4.49,7.17-7.46,20.29a13.6,13.6,0,0,0,7.46,2.08v3.59q-7.45,9.25-14.62,9.24,0,2.7,7.16,7.16h5.67v-1.79a13.66,13.66,0,0,1-1.79-5.37l3.58-1.79q2.67,7.15,5.67,7.16c1.79,0,3.57-1.78,5.36-5.37q-4.18,0-11-14.91v-1.79c.39-2.39,1.68-3.57,3.87-3.57q6.56,0,18.2,7.44c2.58,0,3.88-1.28,3.88-3.87-1.39,0-2.09-.6-2.09-1.79l3.88-1.78H1264v7.44h5.36v-3.87L1264,242.6v-1.79q5.35,0,5.36-7.16c.4-2.58,1.69-3.87,3.89-3.87H1275v3.87l-1.78,3.59H1275a13.61,13.61,0,0,1,5.37-1.79q3.89,6,3.88,9.24l9.25-2.09c5.36,5,8.35,7.46,8.94,7.46h2.1v-1.79l-3.89-5.67q3.88,0,3.89-3.57c-1.79,0-3.69-1.79-5.68-5.38V226.2l1.79-9.25h-1.79q-11,7.45-11,14.61H1286c-2.39,0-3.58-2.37-3.58-7.16q-6,3.58-9.24,3.59l-1.79-3.59,5.36-3.87h5.67q16.39-10.14,16.4-12.83l3.58-1.78h2.1q0,2.39,8.94,11l2.09,7.45c-1.78,0-3.68,1.8-5.67,5.38h1.79a15.22,15.22,0,0,1,7.46-1.79v-9.25c0-2.39,3.67-4.18,11-5.38a1.58,1.58,0,0,0,1.78,1.8v-3.58h-9.24V207.7c2.58,0,3.88-.6,3.88-1.78v-5.38l5.36-3.87h1.79c0,2.59,1.89,3.87,5.67,3.87l-3.57,5.38c2.38.39,3.57,1.59,3.57,3.57q14.63-4.17,14.62-5.36-7.17-7.45-7.16-11h-2.09l-8.94,1.79-2.1-3.59q17.29-12.53,33.11-16.69,0-6,24.17-7.17,25.65,21.48,25.65,29.24l-3.58,1.79c0-1.2-.7-1.79-2.1-1.79l-16.4,9.25-9.24-1.79h-1.79q-16.11,8.66-20.29,18.48h-1.78l-3.58-2.08a1.85,1.85,0,0,1-2.1,2.08c-1.18-3.77-4.87-5.66-11-5.66q0,3-11,12.83a13.86,13.86,0,0,0,5.67,1.78l7.46-3.57,1.79,3.57-3.88,5.68-3.58-1.79c-1.79,0-3.57,1.79-5.36,5.36L1332,239h-1.78c0,5-1.79,7.46-5.37,7.46l-3.88-1.8v1.8a13.7,13.7,0,0,1,1.79,5.36l-3.58-1.79h-1.79v7.46c2.38.4,3.58,1.59,3.58,3.58a26.81,26.81,0,0,1-12.83,12.82l-9.25-1.79c0,2.59-.59,3.88-1.78,3.88l-3.58-2.09h-2.1V276h3.89q0,2.4-18.5,7.16-11,9-11,12.82l-12.83,3.89h-5.67q0,4.19-9,9.23c-1.4,2.4-2.09,4.18-2.09,5.38q10.75,4.77,31.32,53.39,22.38,47.13,97.54,147.36l-1.79,3.58q-6-.3-44.14-36.69-31.92-31.92-55.18-75.47-25.65-28.34-33.11-59.06-6.87-22.07-20.29-22.07,0,3.89-12.82,12.82l1.79,3.89q-1.8,5.36-11,5.36l-12.82-1.79v3.58q9.22.6,9.23,5.67v1.79h-7.44v3.57c5,0,7.44,1.3,7.44,3.89q-3,7.15-5.66,7.15h-1.78q-13.44-11-25.66-11c0,2-1.3,4.48-3.88,7.46q2.68,0,5.68,5.66v1.8l-1.8,3.58-9.24-1.79h-1.8l1.8,3.58q-1.8,5.67-3.88,5.67l-7.17-3.88q-5.07,11-7.45,11l1.79,3.89-3.57,5.36v3.88c.39,2.38,1.57,3.58,3.57,3.58a13.76,13.76,0,0,0,1.79-5.67h5.67v5.67c-3.78,0-5.67,1.2-5.67,3.58l-3.58-1.79h-1.78l1.78,3.57c-1.19,0-1.78.71-1.78,2.1l-9.25-2.1h-3.59c1.19,7.37,2.39,11,3.59,11a13.76,13.76,0,0,0-1.79,5.67l-9.25-1.78v5.36c7.35,0,11,1.29,11,3.88v1.79l-3.59-1.79h-2.09q-2.08,0-11,20.29h2.08q3.58-2.1,5.38-2.1l1.79,3.89-3.58,1.78h-3.59l-3.87-1.78q0,4.17-5.36,14.61a1.58,1.58,0,0,1,1.78,1.79,13.82,13.82,0,0,1-5.67,1.78v13.14q0,2.67-7.16,7.15-8.64-2.38-29.52-31.32v-1.79q3.57,0,3.57-5.36H1056v3.57h1.8v-3.57l-1.8-11q2.7,0,9.24-12.82l-2.08-11.35,7.46-3.58-1.79-3.57V417.7h1.79l3.58,1.79,2.08-12.83h-3.87v-2.09c.39-2.38,1.69-3.58,3.87-3.58l9,1.79-3.57-5.36v-3.89a47.81,47.81,0,0,0,12.82-25.65q2.09,0,14.91-16.41,9-5.07,9-7.45l3.89,1.79q2.67,0,5.36-5.37v-3.88l-3.58,1.79h-3.59c-2.57,0-3.87-1.19-3.87-3.57l5.68-3.58-1.81-3.89v-1.78c0-2.4,4.28-3.58,12.84-3.58,0,1.18,1.79,2.38,5.37,3.58q8.94-12.82,16.7-12.83c0-1.79-1.9-3.67-5.67-5.67h-9v-3.58q5.38,0,5.38-3.57c-1.79-1.2-5.48-1.8-11-1.8q0-10.44,11-13.12l-1.79-3.58q5.36-12.54,5.36-14.62c2.58,0,3.89,1.8,3.89,5.37q4.15,0,7.15-11h2.08v-5.38h-7.45q15.21-18.48,18.49-18.48h1.8q-7.47,8-7.46,9.25l3.57,1.78,5.68-3.58v1.8l3.57-1.8h1.79l5.67,3.58q2.68,0,5.37-7.46Q1181,239,1181,235.45v-1.8h5.67l-1.8-3.87,7.17-7.17c-1.2,0-1.79-.69-1.79-2.08l-3.58,2.08h-3.88v-2.08q5.65-5.37,7.46-20c2.38,0,3.58-1.28,3.58-3.87v-1.79l-1.79-9.25h1.79l-1.79-3.57c.39-2.4,1.69-3.59,3.88-3.59v3.59c2.38,0,3.58-1.2,3.58-3.59v-2.09h-3.58V174.6q0-3.6,11-3.59v-1.79c0-1.79-1.9-3.68-5.67-5.66q0-1.8,7.46-11l-3.89-1.78q2.1-7.45,11-7.46V130.45q5.07-6,14.92-42.36,11.33-8.36,18.5-34.91Zm-187.92,392c.39,2.59,1.69,3.88,3.87,3.88h1.8v-3.88Zm7.46-18.5-3.59,5.67,3.59,1.79h3.58v-3.57C1074.24,427.94,1073,426.64,1070.66,426.64Zm7.45,29.53v3.89h3.59l1.78-9.25Q1080.81,450.81,1078.11,456.17Zm1.8-38.47v7.15c.39,2.59,1.59,3.89,3.57,3.89h1.79q0-5.69,3.89-5.68v-3.57l-3.89,1.79c0-2.4-1.19-3.58-3.57-3.58Zm3.57,16.4,3.88,1.79,3.58-5.36h-3.58C1084.78,430.92,1083.48,432.12,1083.48,434.1Zm5.68,3.89v1.78h7.15V438Zm7.15-35.21,2.08,3.88v1.79h-2.08a13.78,13.78,0,0,0-5.37-1.79v8.94l3.58-1.78h1.79q0,5.67,3.88,5.67l1.79-3.89a1.57,1.57,0,0,1-1.79-1.78,14.62,14.62,0,0,1,7.15-1.79q0-2.38-8.95-9.25Zm-5.37,23.86v2.1q2.68,0,5.37-5.68h-1.79Q1090.94,423.68,1090.94,426.64Zm16.4-33.11c0,3.79-1.19,5.67-3.57,5.67V401h3.57l3.89-5.36v-2.1Zm2.09-33.11,3.59-1.78,1.78,3.87a13.77,13.77,0,0,0-1.78,5.37l7.44,5.66c1.6,0,3.38-1.88,5.38-5.66a1.58,1.58,0,0,1-1.79-1.78c2.38,0,3.58-1.2,3.58-3.59v-3.87c-3.58,0-5.36-1.2-5.36-3.58q3.57,0,3.57-3.59l-3.57-2.08h-5.68Q1109.44,353.28,1109.43,360.42Zm5.37,81.14v5.37h-3.57v-1.79C1111.62,442.76,1112.81,441.56,1114.8,441.56Zm0-33.11v1.79c.4,2.38,1.6,3.58,3.58,3.58v-5.37Zm3.58-49.81q3.88.58,3.89,3.87v1.8q0,3.57-3.89,3.57l-1.79-3.57A13.76,13.76,0,0,0,1118.38,358.64Zm11-51.61h5.67v5.67l-9.25,1.79C1128.22,311.51,1129.42,309,1129.42,307Zm5.67,86.5h1.79l-1.79,3.89a1.57,1.57,0,0,1,1.79,1.78L1133.3,401l-1.8-3.57C1131.91,394.83,1133.09,393.53,1135.09,393.53Zm-1.79-18.19v5.37h1.79c2.38,0,3.58-1.2,3.58-3.58v-1.79Zm9.25-64.43v3.58a13.77,13.77,0,0,0-1.8,5.66h-3.87v-2.08C1138.67,313.29,1140.55,310.91,1142.55,310.91Zm-3.88,44.15c3.77,1.18,5.67,2.38,5.67,3.58a13.58,13.58,0,0,1,5.36-1.79V347.6h-1.79C1142,350.78,1138.86,353.27,1138.67,355.06Zm13.12-97.54h3.58v3.58c0,2.59-1.19,3.87-3.58,3.87Zm0,29.52a13.87,13.87,0,0,1,1.8,5.38h1.78V287Zm11-24.15q0,2.08-2.08,5.67h5.67v-1.8Q1166.41,262.89,1162.82,262.89Zm3.59-9v5.38h5.36v-5.38Zm7.45,27.45c0,3.78-1.89,5.66-5.66,5.66.39,2.39,1.59,3.59,3.57,3.59q4.18,0,5.68-9.25Zm27.45-62.64v3.87q9.24,0,9.24,3.59V228q-4.47,0-7.46,11l3.89,1.78q0-2.67,5.36-5.36l1.79,3.58v1.78c-2.38,0-3.58,1.89-3.58,5.68a15.39,15.39,0,0,1-7.46-1.8,13.86,13.86,0,0,1-5.36,1.8v3.57h5.36v1.79c0,2.59-1.19,3.87-3.57,3.87h-1.79l-9.25-1.79q-1.79,7.17-7.46,7.17v5.66l14.92-9.24a13.73,13.73,0,0,1,1.79,5.37h7.15q0-7.45,7.46-18.2V242.6h3.58v7.46c-3.58,0-5.37,1.3-5.37,3.87v3.59h3.58l9.25-9.25q-3.59,0-3.58-3.58v-3.88h3.58v3.88q2.38,0,7.46-13.13l-1.79-12.82H1227L1218,226.2h-2.1q0-4.19-8.94-9.25A13.76,13.76,0,0,1,1201.31,218.74ZM1181,273.92V276h3.87v-5.66C1182.32,270.74,1181,271.94,1181,273.92Zm9.25-7.16,5.67,7.16h-7.46V276q.6,3.58,3.58,3.58c2.58,0,3.88-1.88,3.88-5.67l3.58,2.09,1.79-9.25a13.88,13.88,0,0,0-5.37-1.79A13.76,13.76,0,0,1,1190.27,266.76Zm5.67-62.63,3.58,1.79q3.57,0,3.57-3.59l-3.57-1.79C1197.13,201,1195.94,202.14,1195.94,204.13Zm11,3.57v3.88q.58,3.58,3.57,3.58c2.38,0,3.58-1.19,3.58-3.58l-5.36-3.88Zm5.36-33.1-1.79,9.24,3.58,1.79H1218q-3.88-4.17-3.89-11Zm14.62,0v5.66h5.67v-1.79c0-2.58-1.2-3.87-3.58-3.87Zm0,125.28v3.57h5.67v-3.57Zm7.46-169.43V134h1.78c2.59,0,3.89-1.2,3.89-3.58ZM1238.29,276v1.8a13.77,13.77,0,0,1,5.37,1.78V276Zm9-150.94v5.38q3.88,0,3.88-3.59Zm3.88,167.35a13.62,13.62,0,0,1,7.16,1.79v-1.79c0-2.39-1.2-3.58-3.58-3.58Q1251.11,289.44,1251.12,292.42Zm9.25-29.53v5.67c2.38,0,3.58-1.2,3.58-3.59v-2.08Zm0,20.28h1.79c2.38,0,3.58-1.2,3.58-3.58H1264Q1260.36,280.19,1260.37,283.17Zm40.26-73.68v2.09l5.67,8.95c0,1.79-1.89,3.69-5.67,5.67a13.58,13.58,0,0,1,1.79,5.36h5.67v-1.78l-1.79-3.58c2.38,0,3.58-1.2,3.58-3.59Q1309.88,213.69,1300.63,209.49Zm7.46,26a13.53,13.53,0,0,1-1.79,7.15v2.09h1.79q0-2.69,7.46-7.45v-1.79l-3.88,1.79Zm3.58-31.32h5.67l1.79,9.23h-5.67v-1.78l2.09-3.88h-3.88Zm0,42.36a1.57,1.57,0,0,1,1.79,1.78,13.86,13.86,0,0,1,5.67-1.78c0-2.59-1.2-3.89-3.58-3.89C1313,243,1311.67,244.29,1311.67,246.49Zm35.2-26v2.08q0,3.58-3.88,3.59v-1.8C1343.38,221.82,1344.68,220.53,1346.87,220.53Zm8.94,3.87,2.1,3.59h-5.67C1352.63,225.6,1353.83,224.4,1355.81,224.4Zm18.5-40.56v3.58q3,0,7.46,3.87l1.79-3.87c0-2.39-1.2-3.58-3.58-3.58Zm3.58-3.58h5.67v-3.88h-1.79Q1377.89,177,1377.89,180.26Z"/><path class="cls-1" d="M1382.31,242.87q16.08,10.83,19.92,16.42l-5.94,24.46a9.16,9.16,0,0,0,1.23,4.72c-.59,3.15-1.4,4.71-2.45,4.71l1.22,2.28a19.6,19.6,0,0,0-3.49,11.71h-1.23l-2.26-1.23c0,1.28-.76,2.86-2.28,4.71v1.23h2.28v1.05a8.33,8.33,0,0,0-3.5,1.22l1.22,2.28v1.22c-2.32,2.56-3.49,4.48-3.49,5.76h-1.23a2,2,0,0,1-2.26-2.27v-1.22l3.49-4.54h-2.45c-2.33.35-3.49,3-3.49,8,1.63.24,2.45,1,2.45,2.45v5.76h-1.23v-2.27h-2.44l1.22,8.22c-1.52.23-2.27,1-2.27,2.26l1.05,2.28c-.7,0-1.05.4-1.05,1.22l-5.94-3.5h-1.05l1.05,5.77,3.49-2.27,2.45,3.5v1.22c-4.67,5-7,7.75-7,8.21,1.51.24,2.27,1,2.27,2.27-1.64,5.48-4,8.21-7,8.21l-2.27-1.22a8.42,8.42,0,0,1-3.67,1.22c0-1.16-1.16-2.33-3.49-3.49v1.05q1.21,1.56,1.22,5.93a8.28,8.28,0,0,1-3.5,1.23l2.28,3.49a9.37,9.37,0,0,0-1,4.54c.7,0,1,.42,1,1.23q-4.55,1.57-4.54,5.77h-2.45v-4.55c-1.16,0-3.5,2.74-7,8.21q-1.76,0-4.72,4.55c1.63.23,2.45,1,2.45,2.45v2.26h-2.45l-2.27-12.92a2,2,0,0,0,2.27-2.28v-2.27c-3.84-.58-5.76-1.75-5.76-3.49l2.26-1.22h1.23a1.08,1.08,0,0,1,1.22,1.22q2.1,0,5.77-7,0-2.44-4.72-2.45V364.3l1.23-2.28h-3.5V360.8q4.89,0,7-9.26h2.45c0,3.14.75,4.72,2.27,4.72h1.22v-7.17h-2.45l-2.27,1.23-3.49-4.72v-1.05q7-5.4,7-8.21,8.21,0,8.21-8.21c-1.28,0-2.86-1.57-4.72-4.72l2.27-3.49h-3.49q0-3.84,5.94-10.49c0-1.27,1.16-3.2,3.49-5.76a1.07,1.07,0,0,1-1.22-1.22c1.16,0,2.33-1.16,3.5-3.5a8.25,8.25,0,0,1-1.23-3.49q3.67,0,12.93-35.12l9.44-17.47ZM1339,378.45v2.27c.34,1.51,1.16,2.27,2.44,2.27a8.32,8.32,0,0,1,1.23-3.5l-2.45-1Zm2.44-8.22c0,.94,1.17,2.86,3.5,5.78a10.24,10.24,0,0,1,4.72-1.06v-3.49l-2.45,1.05h-2.27l1.22-2.28Zm2.27,9.26v1.23h2.45c1,0,2.21-1.16,3.5-3.49h-3.5C1344.52,377.46,1343.7,378.22,1343.7,379.49Zm3.5-41.92v3.49h1.22c1.52,0,2.27-.81,2.27-2.45v-1Zm1.22,25.68v2.27h3.49v-2.27Zm5.77-43.33q0,3.49-3.5,3.49v1.23l4.72,1.22a8.19,8.19,0,0,1,3.5-1.22C1358.91,323.47,1357.33,321.9,1354.19,319.92Zm0,36.34v2.27h3.49v-2.27Zm7.16,3.49,1.05,2.27v1.23q-3.84-2.44-5.77-2.45h-1.22V362q7.68,2.28,10.48,2.28a.93.93,0,0,0-1.05-1.05l1.05-2.45v-2.27h-2.27Z"/><path class="cls-1" d="M1667.62,139.79q15.38,8.91,23.06,33.54h-1.22l1.22,2.28q-7.68,12.91-24.29,49.62a7.22,7.22,0,0,0-3.31-1.23v2.45h2.27v1q-3.15,5.77-11.53,11.54c0,1.51-.41,2.27-1.23,2.27l1.23,2.44v1l-9.26,7v1.05h4.54v1.22q-5.07,5.25-13.8,21.84-13.46,23.06-15,23.24h-1l-2.44-1.22c0,2.32-.35,3.49-1,3.49l1,2.27c-1.17,3-2.27,4.54-3.32,4.54q0-1.56-3.5-3.32c-1.74,3.84-2.91,5.76-3.49,5.76H1603a7.32,7.32,0,0,1,1.23,3.33l-2.27,1.22c.7,2.33,1.45,3.49,2.27,3.49q-1.92,15-8,15l-2.45-1.22a7.3,7.3,0,0,1-3.31,1.22v1l2.27,3.5v3.49c-5.36,5.35-8,8.45-8,9.25l-5.94-1.22-2.27,1.22,1.22,5.78q0,3.66-5.76,11.52a14.23,14.23,0,0,1-7,12.58q-4.2,18.53-8,18.52-3.66,0-19.57-23.06c-.58,0-1.74-2.32-3.49-7V360.1q5.76-4.89,5.77-13.8-2.28,0-2.28-1.05L1535,346.3h-1.23v-3.5a37.84,37.84,0,0,0,4.54-1v-1.23H1535c0,1.52-.82,2.27-2.45,2.27a.93.93,0,0,0-1-1c0,2.33-.76,3.49-2.28,3.49l-7-1.22,1.22,5.76q-6.12,5.77-10.48,5.77a1.08,1.08,0,0,1,1.22-1.22q0-4.54-4.72-4.55c0-1.51,1.17-2.26,3.5-2.26a9.32,9.32,0,0,0,3.49,1v-3.32q0-7-15-10.48v4.72l2.27-1.22h3.49q0,.69-7,7l1.22,2.28a8.2,8.2,0,0,0-1.22,4.54h1.22l-1.22,2.27v2.45h2.44l1-4.72h3.49c2.56,2.33,4.49,3.49,5.77,3.49a1.09,1.09,0,0,1-1.23,1.23,7.22,7.22,0,0,1,1.23,3.31l2.27-1.05H1520v2.28c-3.5,0-5.83.4-7,1.22q-2.1,0-7-7v8l5.76-1.05v1.05q-5.41,5.76-11.52,7l-1-2.28c.69,0,1-.4,1-1.22h-1q-4,0-11.54,5.77a2,2,0,0,0-2.26-2.27,1.09,1.09,0,0,1-1.23,1.22,8.31,8.31,0,0,1,1.23,4.54q5.76-3.48,9.08-3.49,0,3-13.81,7v-1.23l2.28-3.49-2.28-1.05-2.27,3.49a7.25,7.25,0,0,1,1.22,3.32,26.89,26.89,0,0,0-10.48,7q-3.32,0-13.8,4.54l-5.76,2.45q-20.8,0-43.86-38.08,1.4-14.87,5.77-23.07a1.08,1.08,0,0,0-1.22-1.22q9.6-16.77,16.25-19.57l1-5.76,5.77,1c-3,4.32-4.55,7.05-4.55,8.22H1430q11.54-8.74,11.53-11.54h2.27v1.05l-1.22,2.27,3.49,2.44,2.27-3.48v-2.28q-4.55,0-4.54-3.49v-1.23H1438l-2.26,1.23v-1.23q0-2.79,9.26-3.49,1.39,7,3.31,7,0-5.76,2.45-5.76h1c0,3,.76,4.54,2.27,4.54h2.44c2.8-4.2,5.82-6.88,9.09-8l1.22-2.27v-1.22l-1.22-2.27,3.49-2.28c.24,1.52,1,2.28,2.27,2.28h2.45q0-1.75,8-8a8.28,8.28,0,0,1-1.23-3.5h-3.49q0,3.51-3.32,8v1.22c-.81,0-3.14-2.32-7-7h-1.22v-2.27c0-1,1.16-2.21,3.49-3.49l4.72,1.22h1.05v-1.22h-2.27v-2.27q3.31,0,12.76-5.77l2.26,1.23h1v-1.23h-2.27q0-3.31,12.76-7,10.3-7.86,26.56-11.53l6.81,1.23c0-1,2.32-2.57,7-4.55a9.24,9.24,0,0,1,3.49,1,195.14,195.14,0,0,1,34.59-3.49q12.24,0,15,7h4.54q0-7.17,11.53-18.52a10.92,10.92,0,0,1,1.22,5.76h2.28q2.27,0,2.27-5.76a9.36,9.36,0,0,1-4.55-1.06q2.8-10.12,16.08-20.78v3.49h3.49q1.74,0,3.5-3.49h-7v-2.28c.11-1.05,2-2.62,5.77-4.71q0,1.76,3.49,3.49h1.22l2.27-1.22c0-4.54-1.16-6.82-3.49-6.82v-7h2.27l2.27,1.22q0-5.76,7-17.3l5.76-8,15-24.28ZM1430,324.46v1.05h2.27v-3.32C1430.76,322.43,1430,323.18,1430,324.46Zm123.35-53.11-2.27-1.23-49.62,18.53q-1.93,3.48-11.53,5.76v4.72h1.22v1l-10.49,5.77q-1,4.19-11.53,11.53h-1V314q-1.57,0-5.77,7c1.51.23,2.27,1,2.27,2.27a9.21,9.21,0,0,1-4.71,1.22l1.22,2.27q-11.35,13.8-15,13.8l-4.54,7a.92.92,0,0,1,1,1c-2.34,0-3.5,1.17-3.5,3.5h-2.27c0-2.33-.75-3.5-2.27-3.5l-2.27,1.22a29,29,0,0,1,3.5,12.76H1438V360.1l5.77,1.23q0-3.85,9.26-4.54v-4.72q5.78,0,5.77,2.27l2.27-1h1.22a.93.93,0,0,1,1.05,1,9.11,9.11,0,0,0,7-5.77c-.82,0-1.23-.35-1.23-1h1.23a9.37,9.37,0,0,0,3.49,1c.23-1.51,1-2.27,2.28-2.27.23,1.52,1,2.27,2.26,2.27,0-2.21.76-3.32,2.27-3.32h7v-5.76l1-2.45,2.45,1.23c3.84-2.1,5.76-4,5.76-5.77a7.4,7.4,0,0,1,3.33,1.22q4.53,0,8.21-7h1l2.27,1.22,2.45-4.71c-.81,0-1.22-.35-1.22-1.05q1.57,0,9.26-9.26v2.27h2.27c0-4.65,1.57-7,4.71-7,.24-1.51,1-2.27,2.28-2.27.23,1.52,1,2.27,2.27,2.27h2.27q-3.49-4.36-3.49-6.81l2.45-1.23h2.26l-2.26,3.5,2.26,1.22q7.68-5.76,10.31-5.76h3.5c0-3.84,1.92-5.77,5.76-5.77a1.08,1.08,0,0,1,1.23-1.22l1,2.27a8.92,8.92,0,0,0-3.49,7h-3.32v2.27c1.16,0,2.68.76,4.54,2.27h3.5v-1.05q-4.72,0-4.72-3.49c3.14,0,4.72-1.17,4.72-3.49h1l3.5,2.26q5.76-1.4,5.76-3.49v-1.05h-5.76c-1.52,0-3-2.32-4.54-7a9.22,9.22,0,0,0,1-3.5l3.5,2.27h1.22a2,2,0,0,0,2.27-2.27l2.27,1.22a8.37,8.37,0,0,1,3.5-1.22l1.22,2.27c-1.16,0-2.33,1.17-3.49,3.5l-5.77-1.05h-1.22v2.27a9.18,9.18,0,0,1,4.71,1.22v-1.22l2.28,1.22q1,0,8-8.21l-1.22-2.27v-1.22c0-1.87,1.58-3,4.72-3.33v-1.22c-3.14,0-4.72-1.92-4.72-5.76a1.08,1.08,0,0,0,1.22-1.23h-2.27c0,2.33-.76,3.5-2.27,3.5-.82,0-1.22-.35-1.22-1.05l-2.27,1.05h-2.28v-4.55l-5.76,1.05v-1.05Q1561.74,270.12,1553.36,271.35ZM1436.82,314l-1,4.71h8a2,2,0,0,0,2.27-2.26C1445.38,316.43,1442.3,315.61,1436.82,314Zm-1,57.83,1,2.27a8.33,8.33,0,0,1,3.5-1.22v-1.05Zm18.34-85.44v2.28q0,1.74-3.32,3.49v-1.22C1451.85,287.89,1453,286.37,1454.12,286.37Zm-2.27,35.82v4.54h1.22a2,2,0,0,0,2.27-2.27v-2.27Zm2.27-2.45h3.49v-3.31Q1456,316.43,1454.12,319.74Zm5.77-29.87v2.27a2,2,0,0,1-2.28,2.27l-1-2.27Zm-1.05,19.56-2.28,3.5c0,1.16,1.52,2.68,4.55,4.54h1.22v-1h-2.44l1.22-5.78Zm11.53-32.32v1.22c.23,1.52,1,2.28,2.27,2.28h1.22v-3.5Zm9.25,71.46v1.22c.24,1.52,1,2.28,2.28,2.28h1V351c0-1.62-.76-2.44-2.28-2.44Zm8,2.44a7.36,7.36,0,0,1-1.22,3.33h3.5v2.45a13.33,13.33,0,0,1-7-2.45v1.22q0,1.76,4.71,4.54h4.55c1.51,0,2.27-1.1,2.27-3.31-.47-2.11-2.39-4-5.77-5.78Zm-2.26-73.9a8.42,8.42,0,0,1-1.23,3.5h2.27v-3.5Zm-1.23,12.76v1.05c.23,1.63,1,2.44,2.27,2.44a8.33,8.33,0,0,1,3.5-1.22,2,2,0,0,0-2.28-2.27Zm9.26,58.7v3.5h2.27v-3.5Zm6.82,12.76v2.27c.34,1.63,1.16,2.45,2.44,2.45v-4.72Zm2.44-78.45c.24,1.51,1,2.27,2.27,2.27l1-2.27Zm11.53-5.77v3.5h2.27v-1.23A2,2,0,0,0,1514.22,277.11Zm3.5,55.39c1.51.23,2.27,1,2.27,2.27-1.52.23-2.27,1-2.27,2.27v1.23q0,1.74,3.31,3.49,0-3.5,3.5-3.49v-3.5c-1.52,0-2.27-1.52-2.27-4.54H1520C1518.47,330.46,1517.72,331.22,1517.72,332.5Zm1-69.19v2.27H1520a8.3,8.3,0,0,1,3.49-1.22l-1.22-2.27A8.23,8.23,0,0,1,1518.76,263.31Zm7,88.76h1v3.49h-1a2,2,0,0,1-2.28-2.27Zm0-29.88v2.27h4.53a2,2,0,0,0,2.28-2.27h-2.28a9.24,9.24,0,0,1-3.49,1.05A.93.93,0,0,0,1525.76,322.19Zm24.11-16.25a2,2,0,0,1-2.28,2.27l-2.27-1-2.27,3.48c1,0,2.21,1.12,3.49,3.33v2.45c0,1.51-.81,2.26-2.45,2.26a2,2,0,0,1-2.26-2.26l1.22-2.45-2.27-1.05h-2.45c-1.52.23-2.27,1-2.27,2.27v1.23c3.14,0,4.72.75,4.72,2.26-.82,2.34-3.15,3.5-7,3.5v1.05l1.23,2.27a10.28,10.28,0,0,1-7,2.44c0,.59,1.17,1.69,3.5,3.33q.69,0,10.31-4.55l1.22,2.27v3.5h-2.27l1,2.27c-1.52.23-2.27,1-2.27,2.27v1.23c.23,1.51,1,2.26,2.27,2.26l2.26-3.49a9.45,9.45,0,0,1-1-4.54q6.81,0,6.82-5.77a8.36,8.36,0,0,0-4.55-1.22V321q3.5,0,5.77-7h1.22l2.27,1.22v-8ZM1528,348.57h3.5V351H1528Zm8-17.29v3.49h2.27v-3.49Zm12.76-37.92v2.27a2,2,0,0,1-2.28,2.28l-1.22-2.28v-1.22A9.32,9.32,0,0,0,1548.82,293.36Zm2.27,16.07v3.5a2,2,0,0,1-2.27-2.28Zm1.22,12.76v3.32h2.27v-3.32Zm21.84-46.3-1.22,7h-2.28a2,2,0,0,1-2.27-2.27Zm-3.5-4.54h3.5v-2.28h-1.22C1571.41,269.31,1570.65,270.06,1570.65,271.35Zm2.28,57.65v5.77h2.44v-3.49C1575.37,329.77,1574.55,329,1572.93,329Zm4.71,4.72v1l8,1.22h1.22c-1.16-3.14-2.33-4.71-3.49-4.71A9.18,9.18,0,0,1,1577.64,333.72Zm4.55-62.37h3.49v-2.28h-1C1583,269.31,1582.19,270.06,1582.19,271.35Zm5.76,41.58V314q0,2.63,5.76,3.49C1593.71,316.43,1591.79,314.91,1588,312.93Zm5.76-47.35-1,2.27c.7,0,1,.42,1,1.22a8.52,8.52,0,0,1,3.5-1.22v-1A8.42,8.42,0,0,1,1593.71,265.58Zm3.5-13.8v3.49h2.27v-3.49Zm0,65.69v2.27l1.23,2.45a8.16,8.16,0,0,1,3.49-1.22v-1.23c0-1.51-.82-2.27-2.45-2.27Zm3.5-75,1.22,7h1c0-2.33.76-3.5,2.28-3.5,0,.7.4,1.05,1.22,1.05q0-3.31,3.49-3.32v-1.22a2,2,0,0,0-2.26-2.27C1606.3,240.25,1604,241,1600.71,242.52Zm3.49,46.13v3.49h1c3.49-1.51,5.42-3.09,5.76-4.72l-2.27-1.05h-2.27C1605,286.61,1604.2,287.36,1604.2,288.65Zm11.53-63.42v2.26h3.49v-2.26Zm1-7v2.27c.23,1.63,1,2.45,2.44,2.45l1-2.45a2,2,0,0,0-2.27-2.27Z"/><path class="cls-1" d="M1737.74,241.82q30.55,1.4,30.57,9.78,8.57,0,18.35,23.24c-1.64.24-2.45,1.05-2.45,2.45a99.25,99.25,0,0,1-19.57-3.67q-25,0-37.91,9.78-2.45,0-11,7.34-13.62,7.33-15.72,7.34V303a10.25,10.25,0,0,1,4.89,1.22,9.22,9.22,0,0,1,4.72-1.22q15.36,7.33,22,7.34h1.22l8.57-1.22a8.38,8.38,0,0,1,1.22,3.67l3.67-2.45q29.88,17.13,31.79,26.73,17.13,16.77,17.13,25.68l-2.45,3.67v3.67h-1.22l1.22,2.45V375q-5.07,4.91-14.68,4.9-1.92,0-4.89,2.44l-6.12-1.22-7.33,3.67h-2.45v-2.45h-1.22l-2.44,1.23a2.16,2.16,0,0,0-2.45-2.45h-3.67q0,2.44-4.89,2.45V386l2.45-1.22h2.44v2.45a9.27,9.27,0,0,0-3.67,1.22,8.33,8.33,0,0,0-3.67-1.22c0,1-2.44,2.68-7.34,4.89a2.16,2.16,0,0,0-2.44-2.45q-5.42,4.89-11,4.89V393.3a14.4,14.4,0,0,1-7.34,2.44h-4.71a13.74,13.74,0,0,1-7.34-2.44l-2.45,1.22h-6.12a9.47,9.47,0,0,1-1.22,4.89l-6.11-1.22a9.36,9.36,0,0,1-3.67,1.22c0-3.25-2-5.3-6.11-6.11v-1.22l1.22-2.45h-1.22q-3.33,3.67-7.34,3.67v2.44l6.11,1.23v2.44h-1.22a1.07,1.07,0,0,1-1.22-1.22l-2.45,1.22c-2.45-3.25-4.49-4.89-6.12-4.89V393.3l2.45-3.67h-1.22a9.6,9.6,0,0,1-4.9,1.22v-1.22l2.45-3.67v-2.44c-2.45,0-3.67-1.23-3.67-3.67L1652.3,386v-2.44q-1.92,1.22-7.34,1.22V386q0,2.44,3.67,2.45v1.22q-9.78,6.12-9.78,8.56-7.33-.87-7.34-2.45l1.22-2.44v-1.22h-1.22v2.44q-5.6-2.44-6.12-4.89v-1.22l2.45,1.22a9.44,9.44,0,0,1,3.67-1.22v-1.22q-8.57,0-8.56-7.34h4.89q0-3,14.67-4.9,0-.87,6.12-3.67c2.44,0,3.67,1.63,3.67,4.9l-1.23,2.44v1.23h1.23l3.67-7.34q9.78,0,9.78,9.78l-2.44,4.9,2.44,1.22c.23-1.64,1-2.45,2.45-2.45l2.45,1.23q0-2.81,8.56-3.67v1.22c3.25-.35,4.89-1.58,4.89-3.67q2.45,0,2.44,3.67h1.22l4.9-3.67h1.22l3.67,2.45a8.33,8.33,0,0,1,3.67-1.23l-1.22-2.44v-1.23h2.44l3.67,2.45h1.23v-1.22c-.83-2.45-3.27-3.67-7.34-3.67h-3.67v3.67a8.29,8.29,0,0,1-3.67-1.23l-6.12,1.23a2.16,2.16,0,0,0-2.44-2.45q0,4.89-7.34,4.89l-1.22-2.44-2.45,1.22h-1.22l-1.22-7.34a2.17,2.17,0,0,0,2.44-2.45c3.26.47,4.9,1.69,4.9,3.67h1.22v-2.44a1.08,1.08,0,0,1-1.22-1.23q7-6.11,19.56-6.11c.23-1.63,1-2.45,2.45-2.45h1.22v3.67h3.67a2.17,2.17,0,0,0,2.45-2.45q-3.67,0-3.67-2.44v-1.23a10.26,10.26,0,0,1,4.89,1.23q13.44-8,20.61-8.56v1.22l2.45-1.22,6.12,1.22q0-4.87,17.12-11v-2.45a2.16,2.16,0,0,0-2.45-2.44h-11q-42.83-4.56-54.87-14.68-23.58-22.89-24.46-35.3v-3.67l14.68-15.89c0-2.45.81-3.67,2.45-3.67h2.44v2.45h-2.44V270h1.22q9.09-8.56,11-8.56h1.23l-1.23-2.45a80.92,80.92,0,0,1,32.85-12.23l-1.22-2.45V243ZM1637.63,387.19v1.22c.23,1.63,1,2.44,2.44,2.44a2.15,2.15,0,0,0,2.44-2.44l-2.44-1.22Zm7.33,7.33h2.44V397h-4.89C1642.75,395.34,1643.56,394.52,1645,394.52ZM1673.09,375a9.55,9.55,0,0,1,1.23,3.67,2.16,2.16,0,0,0,2.44-2.44l-2.44-1.23Zm17.12-109.89v1.22a9.33,9.33,0,0,1,3.67,1.23v-2.45Zm14.68,4.89-1.22,2.45v1.22h1.22a2.17,2.17,0,0,0,2.45-2.44Zm0,101.33,1.22,2.45a8.23,8.23,0,0,1,3.5-1.22v-1.23Zm12,3.67,2.45,1.23h2.44V375a2.16,2.16,0,0,0-2.44-2.44C1717.76,372.74,1716.94,373.56,1716.94,375Zm4.89,13.46v2.44h4.9a2.16,2.16,0,0,0-2.45-2.44Zm12.24-7.34-1.23,2.45h2.45a9.33,9.33,0,0,1,3.67-1.23v-1.22Zm19.57,2.45v4.89h-1.23A2.16,2.16,0,0,1,1750,386Z"/><g class="cls-2"><path d="M135.26,360.9q22.14,14.3,45,18.81A80.11,80.11,0,0,0,196,381.26a95.85,95.85,0,0,0,16.48-1.49,50.79,50.79,0,0,0,15.06-4.94q14.76-7.86,14.76-24.16,0-16.79-24.76-23.45-7.26-1.91-15.47-3.46l-17-3q-32.51-5.6-45.36-16.43-11.9-9.87-11.9-26.66,0-22.86,21.9-37,19.53-12.74,46.07-12.74,25.47,0,45.83,8.33a134.6,134.6,0,0,1,15.11,7.15l-8.09,19.4q-17.27-10.37-40.71-13.45a98.58,98.58,0,0,0-14.28-1.07q-15.84,0-28,6.07-14.16,7.14-14.16,19.76,0,13.32,18,19.52a114.88,114.88,0,0,0,18.33,4.64L208.94,302q26.79,5,37.14,11.31t15.3,14.1q4.94,7.8,4.94,20.72a44.59,44.59,0,0,1-6.07,23.15,51.54,51.54,0,0,1-16.19,16.9q-19.77,13.21-50.35,13.21A119.84,119.84,0,0,1,140,389a98.46,98.46,0,0,1-15.24-9.29Z"/><path d="M348.93,327l-62.14-96.66H311l49.16,77,48.81-77h22.73L371,326.62v72.25h-22Z"/><path d="M458,230.32h19.28L585.8,363.4V230.32h19.64V398.87H587l-109.39-134v134H458Z"/><path d="M698.65,250.32H635.32v-20H784v20H720.67V398.87h-22Z"/><path d="M813.87,230.32h22v91.54H939.34V230.32h22V398.87h-22v-57H835.89v57h-22Z"/><path d="M1005.16,230.32H1131v20h-103.8v45.47h92.49v20h-92.49v63.09h106.18v20h-128.2Z"/></g></svg>